<?xml version="1.0" encoding="utf-8"?>
<svg xmlns="http://www.w3.org/2000/svg" viewBox="0 0 500 500">
  <path d="M 219.151 200.31 C 219.151 200.31 130.687 238.822 190.484 296.019 C 250.281 353.215 264.324 237.928 264.324 237.928 L 219.151 200.31 Z" fill="#090814" style="stroke-width: 0.634;"/>
  <path d="M 192.878 185.92 C 192.878 152.306 220.098 125.057 253.675 125.057 C 287.253 125.057 314.473 152.306 314.473 185.92 C 314.473 213.182 296.568 236.253 271.89 244.002 L 260.137 321.761 L 200.221 271.777 C 200.221 271.777 213.165 255.271 220.106 236.661 C 203.7 225.761 192.878 207.11 192.878 185.92 Z" fill="#ed9da0" style="stroke-width: 0.634;"/>
  <path d="M 274.5 249.156 L 213.835 246.133 C 213.835 246.133 213.459 258.066 168.542 264.27 C 168.542 264.27 113.823 278.076 113.783 317.556 L 105.956 434.646 L 390.614 435.196 L 371.948 295.597 C 371.948 295.597 361.278 268.646 323.361 261.522 C 323.361 261.522 287.025 261.226 274.5 249.156 Z" style="stroke-width: 0.634; fill: rgb(221, 194, 243);"/>
  <path d="M 282.735 418.158 C 282.735 418.158 241.87 372.658 171.013 354.954 L 156.657 383.258 L 286.421 437.785 L 439.163 392.018 C 439.163 392.018 418.237 370.735 396.928 362.649 C 396.928 362.649 296.084 389.009 282.735 418.158 Z" fill="#e6e6e6" style="stroke-width: 0.634;"/>
  <path d="M 449.626 385.454 L 422.203 429.972 L 404.082 459.379 L 374.93 467.466 L 279.16 494.004 C 260.533 508.546 249.514 495.104 249.514 495.104 L 186.565 471.003 L 153.942 458.501 L 149.051 456.633 L 149.175 454.321 L 150.965 419.535 L 153.164 376.934 L 279.445 425.298 C 293.205 435.45 298.653 424.21 298.653 424.21 L 449.626 385.454 Z" fill="#090814" style="stroke-width: 0.634;"/>
  <path d="M 423.832 442.765 L 412.292 460.816 C 411.089 462.698 409.34 464.167 407.279 465.027 L 388.307 472.94 C 383.503 474.944 377.953 473.295 375.03 468.984 C 370.778 462.712 366.626 454.506 366.518 449.931 C 366.184 435.017 380.501 422.59 398.499 422.182 C 403.894 422.052 411.725 423.982 418.514 426.605 C 424.995 429.108 427.576 436.908 423.832 442.765 Z" fill="#ed9da0" style="stroke-width: 0.634;"/>
  <path d="M 211.567 451.118 C 209.097 462.062 198.918 469.618 186.565 471.003 C 182.489 471.473 178.178 471.262 173.818 470.273 C 165.542 468.406 158.599 464.078 153.942 458.501 C 152.93 457.313 152.027 456.077 151.249 454.791 L 147.474 455.033 C 143.117 455.312 139.49 451.726 139.714 447.361 L 140.704 428.143 C 140.913 424.083 144.389 420.974 148.442 421.222 L 158.674 421.848 C 165.863 417.149 175.67 415.306 185.713 417.581 C 203.279 421.551 214.853 436.563 211.567 451.118 Z" fill="#ed9da0" style="stroke-width: 0.634;"/>
  <path d="M 105.956 434.646 L 128.868 456.843 C 132.757 460.61 139.267 457.902 139.324 452.485 C 139.479 437.664 141.408 417.377 150.965 419.535 L 110.749 411.772 L 105.956 434.646 Z" style="stroke-width: 0.634; fill: rgb(221, 194, 243);"/>
  <path d="M 237.416 99.056 C 224.121 96.493 209.81 99.753 198.933 107.822 C 188.055 115.892 180.774 128.649 179.354 142.128 C 173.485 143.062 170.162 149.714 170.096 155.664 C 170.029 161.613 172.19 167.361 172.752 173.285 C 173.151 177.484 172.744 181.762 173.552 185.902 C 174.361 190.042 176.766 194.252 180.774 195.555 C 174.438 198.648 174.556 208.958 180.162 213.236 C 185.768 217.514 194.223 216.227 199.748 211.844 C 205.272 207.461 208.361 200.695 210.405 193.942 C 212.449 187.188 213.662 180.158 216.427 173.667 C 224.395 154.957 246.094 143.211 266.096 146.781 C 286.098 150.35 302.406 168.878 303.426 189.191 C 303.728 195.216 303.135 202.113 307.418 206.357 C 313.325 212.209 323.705 208.116 329.124 201.808 C 336.136 193.646 339.217 182.244 337.272 171.657 C 335.327 161.069 328.396 151.51 318.942 146.379 C 317.01 127.691 305.856 110.184 289.745 100.549 C 273.633 90.914 252.947 89.381 235.594 96.537" fill="#090814" style="stroke-width: 0.634;"/>
</svg>