<?xml version="1.0" encoding="utf-8"?>
<svg xmlns="http://www.w3.org/2000/svg" viewBox="0 0 500 500">
  <path d="M 253.034 172.372 C 248.576 164.998 243.293 157.126 235.02 154.718 C 225.438 151.93 215.596 157.469 207.248 162.934 C 182.281 179.281 158.238 196.996 135.228 215.998 L 135.253 216.284 C 153.167 215.049 171.081 213.813 188.995 212.578 C 201.938 211.685 215.326 210.67 226.764 204.547 C 231.104 202.223 235.335 199.12 240.253 198.904 C 246.364 198.635 251.692 202.902 255.879 207.361 C 280.647 233.736 287.814 274.068 315.601 297.24 C 298.08 254.029 277.158 212.275 253.034 172.372 Z" fill="#f2f2f2" style="stroke-width: 0.581;"/>
  <path d="M 405.279 396.075 C 402.54 392.617 401.421 391.807 398.719 388.316 C 376.721 359.864 356.044 330.452 336.689 300.078 C 323.542 279.449 311.047 258.425 299.205 237.004 C 293.566 226.82 288.083 216.556 282.754 206.213 C 278.619 198.193 274.576 190.124 270.625 182.008 C 269.495 179.69 268.398 177.361 267.305 175.027 C 264.731 169.538 262.205 164.023 259.493 158.609 C 256.402 152.438 252.64 145.968 246.964 141.822 C 244.381 139.858 241.293 138.669 238.059 138.396 C 233.439 138.097 229.176 140.005 225.168 142.089 C 195.848 157.378 168.399 176.546 143.571 198.358 C 118.679 220.218 96.43 244.916 77.277 271.946 C 76.692 272.783 75.306 271.984 75.897 271.142 C 78.226 267.848 80.601 264.59 83.022 261.368 C 113.127 221.329 150.041 186.898 192.075 159.648 C 199.147 155.065 206.352 150.697 213.69 146.544 C 217.388 144.449 221.102 142.382 224.881 140.442 C 228.584 138.54 232.517 136.829 236.748 136.765 C 251.147 136.541 258.603 152.848 263.724 163.82 C 265.333 167.274 266.962 170.716 268.611 174.148 C 274.84 187.177 281.31 200.088 288.019 212.879 C 292.16 220.777 296.391 228.628 300.713 236.434 C 314.163 260.739 328.459 284.553 343.601 307.874 C 363.659 338.767 383.558 366.057 406.408 394.945 C 407.037 395.745 405.913 396.885 405.279 396.075 Z" fill="#e4e4e4" style="stroke-width: 0.581;"/>
  <path d="M 142.148 190.306 C 141.311 189.373 140.48 188.441 139.638 187.508 C 132.998 180.165 125.873 172.906 116.755 168.696 C 112.407 166.626 107.661 165.526 102.846 165.472 C 97.869 165.488 93.004 166.794 88.405 168.622 C 86.23 169.491 84.104 170.476 82.01 171.526 C 79.617 172.731 77.267 174.015 74.928 175.31 C 70.536 177.74 66.202 180.276 61.925 182.92 C 53.414 188.179 45.17 193.841 37.193 199.903 C 33.057 203.047 29.007 206.295 25.042 209.645 C 21.355 212.757 17.742 215.952 14.203 219.232 C 13.447 219.93 12.317 218.8 13.073 218.102 C 14.006 217.233 14.949 216.37 15.893 215.517 C 18.557 213.109 21.264 210.746 24.014 208.43 C 29.029 204.198 34.173 200.131 39.447 196.226 C 47.648 190.151 56.132 184.488 64.898 179.237 C 69.279 176.615 73.72 174.104 78.221 171.702 C 79.58 170.977 80.955 170.269 82.346 169.597 C 85.501 168.005 88.78 166.67 92.151 165.606 C 96.925 164.061 101.977 163.565 106.96 164.151 C 111.772 164.851 116.408 166.455 120.624 168.878 C 129.577 173.882 136.52 181.619 143.277 189.171 C 143.96 189.938 142.835 191.073 142.148 190.306 Z" fill="#e4e4e4" style="stroke-width: 0.581;"/>
  <path d="M 325.585 266.403 L 347.038 258.556 L 357.689 254.66 C 361.158 253.392 364.619 251.947 368.205 251.039 C 371.321 250.148 374.63 250.191 377.723 251.16 C 380.481 252.181 383.006 253.746 385.147 255.762 C 387.334 257.776 389.37 259.95 391.236 262.265 C 393.555 265.052 395.84 267.868 398.135 270.674 C 407.607 282.258 417.017 293.892 426.365 305.577 C 435.713 317.261 444.998 328.995 454.221 340.779 C 463.466 352.591 472.648 364.453 481.766 376.364 C 482.883 377.823 484 379.283 485.115 380.743 C 485.731 381.55 487.12 380.755 486.495 379.936 C 477.31 367.905 468.06 355.924 458.746 343.991 C 449.41 332.031 440.009 320.12 430.543 308.261 C 421.078 296.402 411.549 284.594 401.956 272.838 C 399.566 269.909 397.172 266.983 394.774 264.061 C 392.751 261.596 390.751 259.104 388.533 256.809 C 384.461 252.598 379.373 248.876 373.283 248.775 C 369.702 248.715 366.237 249.852 362.91 251.055 C 359.323 252.353 355.746 253.674 352.164 254.984 L 330.561 262.886 L 325.16 264.861 C 324.202 265.212 324.616 266.757 325.585 266.403 Z" fill="#e4e4e4" style="stroke-width: 0.581;"/>
  <path d="M 113.932 177.937 C 103.03 172.334 89.068 173.431 79.05 180.431 C 98.159 183.728 117.059 188.139 135.653 193.642 C 127.931 189.117 121.891 182.028 113.932 177.937 Z" fill="#f2f2f2" style="stroke-width: 0.581;"/>
  <path d="M 78.943 180.412 L 76.844 182.118 C 77.554 181.521 78.292 180.961 79.05 180.431 C 79.015 180.425 78.979 180.418 78.943 180.412 Z" fill="#f2f2f2" style="stroke-width: 0.581;"/>
  <path d="M 384.339 266.481 C 382.227 263.911 379.944 261.219 376.786 260.175 L 373.837 260.291 C 396.285 299.959 426.604 334.62 462.932 362.148 C 436.734 330.259 410.537 298.37 384.339 266.481 Z" fill="#f2f2f2" style="stroke-width: 0.581;"/>
  <path d="M 200.957 245.275 C 202.322 250.234 205.396 254.549 209.637 257.459 C 211.276 258.575 213.216 259.646 213.776 261.548 C 214.071 262.761 213.89 264.041 213.269 265.123 C 212.649 266.192 211.894 267.177 211.024 268.054 L 210.945 268.351 C 206.876 265.94 203.006 262.891 200.759 258.73 C 198.512 254.569 198.198 249.116 200.957 245.275" fill="#f2f2f2" style="stroke-width: 0.581;"/>
  <path d="M 336.401 363.281 C 337.766 368.239 340.841 372.555 345.081 375.464 C 346.72 376.58 348.66 377.651 349.221 379.553 C 349.516 380.766 349.334 382.046 348.713 383.128 C 348.093 384.197 347.339 385.182 346.468 386.059 L 346.389 386.357 C 342.321 383.946 338.45 380.896 336.203 376.735 C 333.956 372.574 333.642 367.121 336.402 363.281" fill="#f2f2f2" style="stroke-width: 0.581;"/>
  <path d="M 66.094 355.142 C 67.459 360.101 70.533 364.416 74.774 367.326 C 76.413 368.442 78.353 369.513 78.913 371.415 C 79.208 372.628 79.027 373.907 78.406 374.99 C 77.786 376.059 77.031 377.044 76.161 377.921 L 76.082 378.218 C 72.013 375.807 68.143 372.758 65.896 368.597 C 63.648 364.436 63.335 358.983 66.094 355.142" fill="#f2f2f2" style="stroke-width: 0.581;"/>
  <circle cx="377.151" cy="108.703" r="29.647" style="stroke-width: 0.581; fill: rgb(221, 194, 243);"/>
  <path d="M 430.651 85.957 C 416.283 84.015 399.88 91.781 396.156 105.793 C 392.749 96.749 380.83 94.785 374.701 102.257 C 373.557 103.651 372.728 105.275 372.268 107.019 L 373.913 108.197 C 404.703 114.855 436.576 114.711 467.305 107.775 C 457.311 97.271 445.019 87.899 430.651 85.957 Z" fill="#f0f0f0" style="stroke-width: 0.581;"/>
  <path d="M 369.033 125.486 C 354.665 123.543 338.261 131.31 334.537 145.322 C 331.131 136.278 319.211 134.313 313.082 141.786 C 311.939 143.18 311.109 144.804 310.65 146.548 L 312.294 147.726 C 343.085 154.384 374.958 154.24 405.686 147.303 C 395.692 136.8 383.401 127.428 369.033 125.486 Z" fill="#f0f0f0" style="stroke-width: 0.581;"/>
  <path d="M 494.436 132.96 C 494.377 132.96 494.318 132.951 494.261 132.933 C 340.56 84.325 205.093 90.681 118.516 104.573 C 106.734 106.463 94.92 108.646 83.403 111.061 C 80.463 111.677 77.412 112.337 74.337 113.025 C 70.663 113.843 67.039 114.685 63.564 115.528 C 62.063 115.883 60.591 116.241 59.149 116.602 C 56.964 117.141 54.747 117.703 52.371 118.321 C 49.716 119.006 47.018 119.724 44.351 120.456 C 44.341 120.459 44.331 120.462 44.321 120.464 L 44.321 120.465 C 41.308 121.287 38.312 122.134 35.414 122.979 C 33.845 123.432 32.33 123.879 30.88 124.32 C 30.718 124.365 30.574 124.408 30.428 124.452 L 30.117 124.547 C 29.936 124.602 29.758 124.656 29.58 124.707 L 29.568 124.71 L 29.569 124.711 L 29.097 124.857 C 28.534 125.028 27.985 125.194 27.446 125.36 C 13.177 129.758 5.334 132.887 5.256 132.918 C 4.841 133.084 4.401 132.739 4.465 132.296 C 4.494 132.09 4.631 131.916 4.824 131.839 C 4.902 131.808 12.784 128.663 27.104 124.248 C 27.646 124.082 28.196 123.916 28.76 123.745 L 29.199 123.609 C 29.214 123.603 29.229 123.598 29.244 123.594 C 29.421 123.543 29.598 123.489 29.778 123.435 L 30.091 123.34 C 30.246 123.293 30.399 123.246 30.556 123.203 C 31.997 122.765 33.517 122.317 35.089 121.862 C 37.989 121.017 40.988 120.17 44.003 119.346 C 44.012 119.343 44.022 119.341 44.032 119.338 L 44.032 119.337 C 46.708 118.603 49.416 117.882 52.08 117.195 C 54.46 116.577 56.681 116.014 58.869 115.474 C 60.318 115.113 61.792 114.754 63.293 114.397 C 66.772 113.553 70.404 112.71 74.083 111.89 C 77.164 111.202 80.22 110.54 83.165 109.923 C 94.7 107.504 106.532 105.318 118.332 103.425 C 205.033 89.514 340.694 83.147 494.611 131.825 C 495.038 131.959 495.159 132.505 494.829 132.807 C 494.722 132.905 494.582 132.96 494.436 132.96 Z" fill="#ccc" style="stroke-width: 0.581;"/>
  <path d="M 152.615 323.112 C 152.414 322.524 152.075 321.991 151.627 321.56 C 151.462 321.407 151.283 321.268 151.092 321.147 C 149.575 320.136 147.308 319.909 145.866 321.147 C 145.721 321.273 145.587 321.411 145.465 321.56 C 145.035 322.089 144.593 322.606 144.14 323.112 C 143.396 323.961 142.634 324.78 141.838 325.577 C 141.611 325.798 141.384 326.024 141.152 326.245 C 141.018 326.379 140.884 326.507 140.751 326.635 C 140.239 327.123 139.716 327.594 139.187 328.059 C 138.908 328.309 138.629 328.553 138.344 328.791 C 137.92 329.146 137.495 329.501 137.065 329.844 C 137.025 329.873 136.984 329.902 136.943 329.937 C 136.932 329.942 136.926 329.954 136.914 329.96 C 136.908 329.96 136.902 329.96 136.897 329.972 C 136.881 329.978 136.867 329.988 136.856 330.001 C 136.728 330.088 136.641 330.146 136.577 330.198 C 136.6 330.187 136.623 330.169 136.647 330.158 C 136.542 330.239 136.432 330.32 136.327 330.402 C 135.31 331.152 134.269 331.872 133.205 332.547 C 130.573 334.231 127.809 335.699 124.939 336.936 C 124.747 337.011 124.55 337.093 124.352 337.168 C 116.838 340.246 108.688 341.448 100.606 340.668 C 99.78 340.604 98.955 340.516 98.129 340.406 C 97.176 340.266 96.228 340.098 95.287 339.906 C 91.702 339.191 88.194 338.132 84.812 336.744 C 80.581 334.806 76.557 332.446 72.802 329.698 C 72.221 329.286 71.633 328.873 71.046 328.472 C 71.715 326.832 72.372 325.193 73.011 323.542 C 73.331 322.746 73.639 321.95 73.941 321.147 C 76.319 314.968 78.551 308.731 80.69 302.47 C 82.853 296.128 84.893 289.749 86.811 283.333 C 87.009 282.682 87.201 282.031 87.387 281.38 C 88.392 277.991 89.357 274.594 90.282 271.19 C 90.369 270.859 90.462 270.533 90.543 270.202 C 90.811 269.225 91.072 268.248 91.328 267.272 C 91.909 265.069 90.596 262.435 88.282 261.906 C 85.967 261.313 83.597 262.659 82.922 264.952 C 82.672 265.894 82.422 266.83 82.167 267.772 C 80.94 272.323 79.65 276.859 78.295 281.38 C 78.098 282.031 77.9 282.682 77.702 283.333 C 74.714 293.181 71.434 302.929 67.861 312.579 C 67.431 313.747 66.995 314.912 66.553 316.072 C 66.338 316.642 66.123 317.212 65.902 317.782 C 65.477 318.903 65.041 320.025 64.605 321.147 C 64.355 321.804 64.1 322.461 63.844 323.112 C 63.675 323.525 63.513 323.938 63.35 324.344 C 61.692 323.749 59.975 323.336 58.228 323.112 L 57.949 323.077 C 56.595 322.914 55.226 322.926 53.874 323.112 C 49.78 323.59 46.109 325.86 43.853 329.309 C 41.08 333.674 41.115 339.918 45.004 343.626 C 49.009 347.446 55.072 347.417 59.786 345.027 C 62.285 343.676 64.391 341.701 65.902 339.296 C 66.48 338.424 67.012 337.521 67.494 336.593 C 67.617 336.674 67.739 336.755 67.861 336.843 C 68.326 337.168 68.791 337.499 69.25 337.825 C 71.926 339.763 74.746 341.495 77.685 343.004 C 84.005 346.146 90.808 348.204 97.81 349.091 C 97.967 349.108 98.118 349.131 98.275 349.149 C 99.048 349.248 99.827 349.323 100.606 349.387 C 111.78 350.229 122.967 347.943 132.915 342.784 C 133.758 342.348 134.593 341.89 135.42 341.412 C 136.705 340.668 137.96 339.877 139.187 339.04 C 139.856 338.586 140.507 338.127 141.152 337.645 C 143.971 335.568 146.6 333.243 149.005 330.698 C 149.918 329.739 150.792 328.749 151.627 327.728 C 152.417 326.892 152.872 325.796 152.906 324.647 C 152.901 324.122 152.803 323.602 152.615 323.112 Z M 56.357 336.959 C 56.479 336.872 56.601 336.779 56.717 336.686 C 56.682 336.773 56.514 336.872 56.357 336.959 Z M 58.223 335.081 C 58.089 335.232 57.967 335.383 57.833 335.535 C 57.426 335.99 56.989 336.417 56.525 336.814 C 56.461 336.872 56.392 336.93 56.322 336.982 C 56.319 336.982 56.316 336.985 56.316 336.988 C 56.232 337.025 56.15 337.068 56.072 337.116 C 55.822 337.267 55.566 337.406 55.304 337.534 C 54.792 337.723 54.265 337.869 53.729 337.97 C 53.317 338 52.904 338.004 52.491 337.982 L 52.479 337.982 C 52.195 337.919 51.913 337.841 51.636 337.749 C 51.497 337.68 51.363 337.598 51.23 337.517 C 51.177 337.47 51.131 337.424 51.102 337.395 C 51.045 337.343 50.992 337.287 50.945 337.226 C 50.945 337.223 50.942 337.22 50.939 337.22 C 50.875 337.104 50.805 336.988 50.741 336.872 C 50.738 336.869 50.736 336.864 50.735 336.86 C 50.689 336.715 50.648 336.564 50.613 336.412 C 50.601 336.147 50.603 335.881 50.619 335.616 C 50.697 335.245 50.802 334.879 50.933 334.523 C 51.051 334.271 51.185 334.026 51.334 333.791 C 51.346 333.767 51.404 333.674 51.468 333.57 C 51.474 333.564 51.474 333.564 51.474 333.558 C 51.561 333.459 51.648 333.355 51.741 333.262 C 51.898 333.087 52.067 332.936 52.235 332.779 C 52.563 332.565 52.903 332.369 53.253 332.192 C 53.807 331.995 54.377 331.841 54.956 331.733 C 55.809 331.665 56.667 331.673 57.519 331.756 C 58.326 331.896 59.123 332.092 59.903 332.343 C 59.43 333.261 58.892 334.143 58.292 334.982 C 58.269 335.017 58.246 335.052 58.223 335.081 Z M 51.759 333.169 C 51.707 333.251 51.647 333.327 51.578 333.395 C 51.624 333.31 51.685 333.233 51.759 333.169 Z" fill="#3f3d56" style="stroke-width: 0.581;"/>
  <path d="M 135.141 263.743 C 135.089 265.569 135.037 267.394 134.984 269.219 C 134.874 273.271 134.759 277.325 134.641 281.38 C 134.519 285.943 134.391 290.505 134.258 295.064 C 134.194 297.418 134.128 299.773 134.06 302.127 C 133.88 308.469 133.701 314.809 133.525 321.147 C 133.508 321.804 133.484 322.455 133.467 323.112 C 133.38 326.257 133.293 329.402 133.205 332.547 C 133.107 335.959 133.01 339.371 132.915 342.784 C 132.845 345.341 132.773 347.901 132.7 350.463 C 132.176 369.024 131.653 387.585 131.13 406.146 C 131.084 408.535 129.159 410.46 126.77 410.506 C 124.371 410.486 122.43 408.546 122.411 406.146 C 122.701 395.706 122.996 385.265 123.294 374.825 C 123.556 365.385 123.821 355.944 124.09 346.504 C 124.178 343.394 124.265 340.282 124.352 337.168 C 124.486 332.483 124.618 327.797 124.747 323.112 C 124.765 322.455 124.788 321.804 124.805 321.147 C 124.817 320.572 124.835 320.002 124.852 319.427 C 125.108 310.329 125.364 301.23 125.619 292.128 C 125.724 288.548 125.825 284.965 125.922 281.38 C 126.038 277.294 126.154 273.209 126.27 269.126 C 126.323 267.33 126.369 265.54 126.422 263.743 C 126.467 261.355 128.393 259.429 130.781 259.383 C 133.181 259.403 135.122 261.343 135.141 263.743 Z" fill="#3f3d56" style="stroke-width: 0.581;"/>
  <path d="M 374.307 264.953 C 369.735 282.264 364.271 299.327 357.937 316.074 C 356.189 320.693 354.4 325.303 352.489 329.858 L 352.928 328.816 C 352.075 330.986 350.986 333.054 349.679 334.985 C 349.59 335.11 349.5 335.233 349.408 335.355 C 349.86 334.777 349.945 334.663 349.665 335.013 C 349.518 335.187 349.372 335.363 349.219 335.533 C 348.812 335.989 348.375 336.416 347.912 336.814 C 347.795 336.914 347.676 337.011 347.556 337.107 L 348.101 336.683 C 348.038 336.832 347.594 337.031 347.456 337.115 C 347.008 337.385 346.54 337.622 346.058 337.823 L 347.099 337.384 C 346.308 337.703 345.483 337.929 344.639 338.059 L 345.799 337.903 C 344.97 338.017 344.131 338.026 343.3 337.93 L 344.459 338.085 C 343.78 337.992 343.115 337.813 342.48 337.552 L 343.521 337.992 C 343.183 337.844 342.856 337.67 342.545 337.471 C 342.388 337.368 341.903 337.001 342.537 337.485 C 343.196 337.989 342.621 337.528 342.486 337.395 C 342.373 337.283 342.271 337.162 342.16 337.049 C 341.648 336.523 342.74 337.954 342.391 337.339 C 342.205 337.03 342.034 336.713 341.881 336.387 L 342.32 337.429 C 342.12 336.933 341.978 336.416 341.897 335.887 L 342.053 337.046 C 341.969 336.389 341.969 335.724 342.051 335.067 L 341.895 336.226 C 342.002 335.492 342.196 334.774 342.473 334.087 L 342.034 335.128 C 342.227 334.666 342.456 334.219 342.719 333.792 C 342.839 333.571 342.981 333.363 343.142 333.169 C 343.171 333.179 342.405 334.049 342.811 333.609 C 342.917 333.494 343.017 333.373 343.124 333.259 C 343.297 333.077 343.481 332.91 343.663 332.737 C 344.27 332.159 342.813 333.299 343.513 332.842 C 344.021 332.508 344.556 332.216 345.112 331.97 L 344.07 332.41 C 345.001 332.027 345.977 331.765 346.974 331.631 L 345.815 331.786 C 347.064 331.643 348.325 331.658 349.57 331.831 L 348.411 331.675 C 349.988 331.914 351.529 332.348 352.999 332.966 L 351.958 332.526 C 355.091 333.871 357.865 335.868 360.635 337.826 C 363.311 339.764 366.13 341.495 369.068 343.004 C 375.388 346.146 382.192 348.204 389.194 349.092 C 409.601 351.592 429.878 343.543 443.015 327.728 C 443.803 326.891 444.258 325.795 444.291 324.645 C 444.283 323.491 443.825 322.385 443.015 321.562 C 441.415 320.094 438.394 319.68 436.849 321.562 C 435.385 323.35 433.811 325.044 432.136 326.635 C 431.355 327.377 430.552 328.096 429.728 328.792 C 429.258 329.19 428.781 329.579 428.298 329.961 C 428.069 330.142 427.357 330.623 428.451 329.846 C 428.2 330.024 427.96 330.219 427.712 330.401 C 424.051 333.1 420.084 335.357 415.893 337.124 L 416.935 336.685 C 412.437 338.571 407.714 339.865 402.884 340.534 L 404.043 340.378 C 399.073 341.032 394.039 341.025 389.072 340.356 L 390.231 340.512 C 385.265 339.83 380.408 338.507 375.781 336.576 L 376.823 337.016 C 372.359 335.041 368.122 332.587 364.187 329.697 C 362.14 328.18 359.98 326.821 357.727 325.631 C 355.103 324.291 352.261 323.427 349.334 323.08 C 343.848 322.434 338.256 324.571 335.24 329.312 C 332.464 333.674 332.5 339.917 336.387 343.626 C 340.391 347.447 346.455 347.415 351.173 345.025 C 355.717 342.723 358.447 337.941 360.367 333.433 C 364.686 323.286 368.511 312.905 372.074 302.47 C 375.599 292.148 378.796 281.72 381.665 271.188 C 382.02 269.884 382.37 268.578 382.715 267.271 C 383.297 265.069 381.982 262.435 379.67 261.908 C 377.354 261.312 374.982 262.659 374.307 264.953 Z" fill="#3f3d56" style="stroke-width: 0.581;"/>
  <path d="M 417.808 263.743 L 416.238 319.428 L 414.677 374.823 L 413.795 406.146 C 413.815 408.546 415.755 410.486 418.154 410.506 C 420.543 410.46 422.468 408.535 422.514 406.146 L 424.083 350.461 L 425.645 295.066 L 426.527 263.743 C 426.507 261.344 424.567 259.404 422.167 259.383 C 419.779 259.429 417.854 261.355 417.808 263.743 Z" fill="#3f3d56" style="stroke-width: 0.581;"/>
  <path d="M 266.902 390.599 L 268.255 390.599 L 268.255 328.956 L 299.837 328.956 L 299.837 327.606 L 268.255 327.606 L 268.255 301.596 L 292.644 301.596 C 292.287 301.141 291.919 300.692 291.541 300.249 L 268.255 300.249 L 268.255 283.07 C 267.808 282.879 267.356 282.695 266.902 282.521 L 266.902 300.249 L 240.364 300.249 L 240.364 278.238 C 239.909 278.258 239.461 278.29 239.01 278.328 L 239.01 300.249 L 217.839 300.249 L 217.839 283.826 C 217.384 284.028 216.936 284.239 216.492 284.462 L 216.492 300.249 L 198.695 300.249 L 198.695 301.596 L 216.492 301.596 L 216.492 327.606 L 198.695 327.606 L 198.695 328.956 L 216.492 328.956 L 216.492 390.599 L 217.839 390.599 L 217.839 328.956 C 229.532 328.954 239.012 338.434 239.01 350.127 L 239.01 390.599 L 240.364 390.599 L 240.364 328.956 L 266.902 328.956 L 266.902 390.599 Z M 217.839 327.606 L 217.839 301.596 L 239.01 301.596 L 239.01 327.606 L 217.839 327.606 Z M 240.364 327.606 L 240.364 301.596 L 240.895 301.596 C 255.259 301.597 266.903 313.242 266.902 327.606 L 240.364 327.606 Z" opacity="0.2" style="stroke-width: 0.581;"/>
  <path d="M 258.634 372.116 C 256.929 379.719 252.847 386.581 246.979 391.706 C 246.548 392.078 246.118 392.439 245.671 392.793 C 244.584 392.892 243.504 392.993 242.433 393.096 C 241.543 393.177 240.666 393.264 239.794 393.346 L 239.637 393.363 L 239.526 392.41 L 239.085 388.55 C 235.613 382.882 234.907 375.943 237.166 369.692 C 238.701 365.553 241.48 361.897 244.212 358.27 C 247.984 353.259 251.652 348.306 251.786 342.196 C 253.642 344.572 255.186 347.176 256.378 349.945 C 255.253 350.475 254.242 351.219 253.402 352.137 C 253.164 352.398 252.925 352.765 253.088 353.078 C 253.228 353.346 253.576 353.41 253.879 353.445 C 254.605 353.52 255.338 353.596 256.064 353.671 C 256.646 353.735 257.227 353.793 257.808 353.857 C 258.512 356.166 258.989 358.537 259.233 360.938 C 259.624 364.672 259.422 368.445 258.634 372.116 Z" fill="#3f3d56" style="stroke-width: 0.581;"/>
  <path d="M 277.933 356.88 C 274.504 359.374 272.498 362.961 270.94 366.914 C 269.343 367.425 267.907 368.342 266.772 369.576 C 266.534 369.838 266.295 370.204 266.458 370.518 C 266.598 370.785 266.947 370.849 267.249 370.884 C 267.975 370.959 268.708 371.035 269.435 371.111 C 267.877 375.784 266.447 380.621 263.691 384.568 C 261.859 387.174 259.47 389.34 256.698 390.91 C 255.942 391.341 255.162 391.727 254.361 392.067 C 251.408 392.293 248.511 392.536 245.671 392.793 C 244.584 392.892 243.504 392.993 242.433 393.096 C 241.543 393.177 240.666 393.264 239.794 393.346 C 239.788 393.026 239.788 392.706 239.794 392.386 C 239.978 383.87 243.111 375.68 248.659 369.216 C 248.92 368.913 249.188 368.617 249.461 368.32 C 252.271 365.318 255.577 362.821 259.233 360.938 C 264.993 357.943 271.449 356.542 277.933 356.88 Z" style="stroke-width: 0.581; fill: rgb(221, 194, 243);"/>
  <path d="M 243.439 390.113 L 242.77 392.09 L 242.433 393.096 C 241.543 393.177 240.666 393.264 239.794 393.346 L 239.637 393.363 C 238.672 393.462 237.713 393.561 236.753 393.659 C 236.504 393.369 236.254 393.072 236.009 392.77 C 223.378 377.474 225.474 354.848 240.701 342.132 C 239.933 346.149 240.828 349.998 242.299 353.817 C 242.142 353.881 241.991 353.945 241.846 354.014 C 240.72 354.544 239.709 355.289 238.869 356.206 C 238.631 356.467 238.393 356.834 238.556 357.148 C 238.695 357.415 239.044 357.479 239.346 357.514 C 240.073 357.589 240.805 357.665 241.532 357.741 C 242.113 357.804 242.694 357.863 243.276 357.927 C 243.549 357.956 243.822 357.985 244.095 358.014 C 244.136 358.101 244.171 358.182 244.212 358.27 C 245.868 361.862 247.653 365.472 248.659 369.216 C 248.911 370.155 249.109 371.108 249.252 372.07 C 250.158 378.655 248.019 385.296 243.439 390.113 Z" style="stroke-width: 0.581; fill: rgb(221, 194, 243);"/>
  <path d="M 301.952 305.801 C 296.947 296.04 289.194 287.827 280.076 281.791 C 270.928 275.764 260.431 272.093 249.521 271.107 C 248.091 270.977 246.657 270.901 245.22 270.878 C 243.522 270.853 217.976 278.221 209.419 284.238 C 200.866 290.181 193.83 298.052 188.88 307.215 C 183.937 316.429 181.506 326.78 181.831 337.23 C 182.255 347.743 185.185 358.003 190.378 367.153 C 195.5 376.275 202.772 384.006 211.563 389.677 C 220.479 395.366 229.435 410.45 239.962 410.982 C 250.569 411.519 262.665 397.29 272.338 392.969 C 282.012 388.613 290.375 381.798 296.594 373.202 C 302.637 364.779 306.546 355.015 307.987 344.748 C 309.483 334.237 308.785 323.395 305.196 313.348 C 304.274 310.767 303.191 308.246 301.952 305.801 C 300.917 303.764 297.885 303.013 295.987 304.237 C 293.955 305.488 293.266 308.115 294.423 310.202 C 295.03 311.399 295.595 312.615 296.117 313.851 L 295.678 312.81 C 297.654 317.562 298.998 322.553 299.675 327.655 L 299.519 326.496 C 300.24 332.032 300.227 337.638 299.481 343.17 L 299.637 342.011 C 298.883 347.542 297.407 352.951 295.245 358.098 L 295.685 357.056 C 294.573 359.683 293.277 362.227 291.806 364.671 C 291.061 365.905 290.271 367.111 289.434 368.287 C 289.067 368.803 288.689 369.311 288.307 369.817 C 287.809 370.477 288.986 368.954 288.471 369.602 C 288.384 369.712 288.297 369.823 288.209 369.933 C 287.945 370.263 287.677 370.59 287.405 370.914 C 285.593 373.076 283.615 375.094 281.49 376.95 C 280.96 377.412 280.422 377.864 279.875 378.305 C 279.603 378.525 279.333 378.754 279.049 378.959 C 279.06 378.951 279.967 378.262 279.43 378.662 C 279.261 378.788 279.094 378.915 278.925 379.041 C 277.797 379.876 276.639 380.669 275.452 381.419 C 272.718 383.142 269.849 384.641 266.874 385.903 L 267.916 385.464 C 262.784 387.624 257.39 389.1 251.874 389.853 L 253.033 389.698 C 247.519 390.443 241.93 390.453 236.414 389.727 L 237.573 389.883 C 232.559 389.21 227.655 387.884 222.984 385.939 L 224.026 386.378 C 221.321 385.236 218.713 383.877 216.227 382.315 C 214.997 381.539 213.799 380.716 212.633 379.846 C 212.466 379.721 212.301 379.595 212.136 379.47 C 211.603 379.069 212.518 379.767 212.525 379.771 C 212.216 379.549 211.918 379.312 211.633 379.059 C 211.07 378.601 210.515 378.131 209.97 377.652 C 207.786 375.729 205.748 373.648 203.87 371.426 C 203.4 370.87 202.94 370.307 202.49 369.734 C 202.295 369.486 201.939 368.984 202.725 370.042 C 202.621 369.903 202.514 369.766 202.41 369.628 C 202.159 369.295 201.912 368.961 201.668 368.623 C 200.815 367.442 200.003 366.232 199.234 364.992 C 197.496 362.187 195.979 359.251 194.697 356.21 L 195.136 357.251 C 193.038 352.26 191.604 347.015 190.869 341.651 L 191.025 342.81 C 190.362 337.865 190.353 332.855 190.997 327.908 L 190.841 329.067 C 191.501 324.276 192.79 319.593 194.674 315.139 L 194.235 316.18 C 195.42 313.392 196.819 310.699 198.417 308.126 C 199.218 306.838 200.066 305.581 200.962 304.356 C 201.166 304.078 201.372 303.801 201.58 303.526 C 201.768 303.277 202.286 302.658 201.402 303.752 C 201.489 303.645 201.572 303.534 201.658 303.426 C 202.149 302.803 202.653 302.19 203.169 301.586 C 205.121 299.301 207.235 297.16 209.495 295.18 C 210.067 294.679 210.647 294.189 211.236 293.71 C 211.504 293.492 211.773 293.276 212.045 293.063 C 212.153 292.977 212.263 292.894 212.371 292.808 C 211.21 293.732 212.049 293.059 212.312 292.862 C 213.527 291.952 214.774 291.087 216.053 290.268 C 218.897 288.45 221.889 286.873 224.997 285.555 L 223.956 285.995 C 228.467 284.101 248.453 279.63 252.088 280.118 L 250.929 279.962 C 256.271 280.708 261.493 282.151 266.461 284.254 L 265.42 283.814 C 267.937 284.883 270.384 286.112 272.744 287.493 C 273.924 288.185 275.08 288.914 276.213 289.68 C 276.749 290.043 277.28 290.414 277.805 290.794 C 278.067 290.983 278.328 291.175 278.587 291.368 C 278.731 291.476 278.874 291.585 279.018 291.693 C 279.622 292.146 278.186 291.037 278.819 291.538 C 280.939 293.203 282.952 295 284.846 296.917 C 285.777 297.864 286.675 298.842 287.542 299.85 C 287.986 300.367 288.421 300.891 288.848 301.424 C 289.059 301.688 289.781 302.645 288.897 301.473 C 289.113 301.759 289.331 302.044 289.545 302.332 C 291.381 304.819 293.013 307.451 294.423 310.202 C 295.465 312.235 298.484 312.993 300.388 311.766 C 302.42 310.516 303.109 307.888 301.952 305.801 Z" fill="#3f3d56" style="stroke-width: 0.581;"/>
  <path d="M 251.151 376.95 C 249.462 377.028 248.322 375.247 249.099 373.745 C 249.216 373.519 249.372 373.315 249.559 373.142 C 249.614 372.922 249.654 372.764 249.709 372.543 C 249.69 372.495 249.67 372.447 249.65 372.4 C 247.627 367.576 234.719 381.022 234.161 385.556 C 233.915 387.559 234.019 389.591 234.467 391.559 C 230.286 382.438 228.115 372.525 228.101 362.492 C 228.1 359.974 228.24 357.459 228.52 354.956 C 228.751 352.905 229.072 350.869 229.483 348.847 C 231.724 337.875 236.536 327.592 243.522 318.842 C 247.518 319.065 251.02 318.456 251.358 310.712 C 251.418 309.334 252.44 308.142 252.665 306.785 C 252.284 306.835 251.896 306.866 251.515 306.891 C 251.396 306.897 251.271 306.903 251.152 306.91 L 251.107 306.912 C 249.433 306.987 248.305 305.221 249.077 303.734 C 249.145 303.603 249.226 303.479 249.319 303.365 C 249.484 303.162 249.649 302.96 249.814 302.757 C 250.064 302.445 250.32 302.138 250.57 301.825 C 250.599 301.796 250.626 301.764 250.652 301.732 C 250.939 301.375 251.227 301.025 251.515 300.668 C 250.99 299.853 250.283 299.171 249.451 298.674 C 246.568 296.985 242.591 298.155 240.508 300.762 C 238.419 303.37 238.025 307.028 238.751 310.287 C 239.464 313.059 240.644 315.69 242.24 318.066 C 242.084 318.266 241.921 318.46 241.765 318.66 C 238.907 322.335 236.416 326.281 234.328 330.442 C 234.919 325.827 227.695 309.162 224.901 305.632 C 221.545 301.392 214.663 303.242 214.072 308.617 C 214.066 308.669 214.061 308.721 214.055 308.773 C 214.47 309.007 214.876 309.256 215.274 309.519 C 217.182 310.793 216.994 313.655 214.936 314.67 C 214.664 314.804 214.373 314.896 214.072 314.942 L 214.011 314.952 C 208.457 322.883 226.264 343.526 230.721 338.891 C 228.623 344.836 227.307 351.029 226.806 357.314 C 226.523 361.022 226.54 364.747 226.856 368.452 L 226.838 368.32 C 225.847 360.251 208.857 348.252 203.896 349.252 C 201.038 349.827 198.222 349.697 198.656 352.58 C 198.663 352.626 198.67 352.672 198.678 352.718 C 199.448 353.031 200.197 353.393 200.923 353.8 C 201.338 354.034 201.744 354.282 202.141 354.545 C 204.049 355.82 203.861 358.681 201.804 359.696 C 201.531 359.831 201.24 359.922 200.94 359.969 L 200.879 359.978 C 200.835 359.984 200.797 359.991 200.754 359.997 C 198.225 368.697 216.976 382.738 228.376 378.27 L 228.382 378.27 C 229.512 383.179 231.149 387.958 233.266 392.528 L 250.714 392.528 C 250.777 392.335 250.833 392.134 250.889 391.941 C 249.274 392.042 247.653 391.945 246.061 391.653 C 247.356 390.064 248.65 388.463 249.945 386.875 C 249.974 386.845 250.001 386.814 250.026 386.781 C 250.683 385.968 251.346 385.162 252.002 384.349 L 252.003 384.348 C 252.038 381.856 251.752 379.37 251.152 376.951 L 251.151 376.95 Z M 231.171 337.646 L 231.181 337.634 L 231.171 337.659 L 231.171 337.646 Z M 227.307 372.485 L 227.157 372.148 C 227.163 371.904 227.163 371.66 227.157 371.41 C 227.157 371.341 227.144 371.272 227.144 371.203 C 227.2 371.635 227.25 372.066 227.313 372.498 L 227.307 372.485 Z" fill="#3f3d56" style="stroke-width: 0.581;"/>
  <circle cx="55.107" cy="334.25" r="6.394" fill="#3f3d56" style="stroke-width: 0.581;"/>
  <circle cx="131.839" cy="404.007" r="6.394" fill="#3f3d56" style="stroke-width: 0.581;"/>
  <circle cx="423.074" cy="404.007" r="6.394" fill="#3f3d56" style="stroke-width: 0.581;"/>
  <circle cx="438.769" cy="322.624" r="6.394" fill="#3f3d56" style="stroke-width: 0.581;"/>
  <circle cx="420.167" cy="263.331" r="6.394" fill="#3f3d56" style="stroke-width: 0.581;"/>
  <path d="M 153.348 322.624 C 153.336 327.523 148.025 330.573 143.788 328.113 C 139.55 325.654 139.565 319.529 143.814 317.089 C 147.589 314.922 152.377 317.099 153.226 321.368 C 153.308 321.782 153.348 322.202 153.348 322.624 Z" fill="#3f3d56" style="stroke-width: 0.581;"/>
  <circle cx="281.235" cy="281.932" r="6.394" fill="#3f3d56" style="stroke-width: 0.581;"/>
  <path d="M 217.873 281.932 C 217.861 286.832 212.55 289.882 208.313 287.422 C 204.075 284.962 204.09 278.838 208.339 276.398 C 212.114 274.23 216.902 276.407 217.751 280.677 C 217.833 281.09 217.873 281.511 217.873 281.932 Z" fill="#3f3d56" style="stroke-width: 0.581;"/>
  <path d="M 135.327 263.331 C 135.316 268.23 130.005 271.28 125.767 268.82 C 121.53 266.36 121.544 260.236 125.793 257.796 C 129.568 255.628 134.357 257.805 135.205 262.075 C 135.287 262.488 135.328 262.909 135.327 263.331 Z" fill="#3f3d56" style="stroke-width: 0.581;"/>
  <circle cx="348.085" cy="336.575" r="6.394" fill="#3f3d56" style="stroke-width: 0.581;"/>
  <circle cx="247.519" cy="275.538" r="9.301" fill="#3f3d56" style="stroke-width: 0.581;"/>
  <path d="M 499.046 410.89 L 0.43 411.068 C -0.103 411.068 -0.436 410.492 -0.169 410.03 C -0.046 409.816 0.183 409.684 0.43 409.684 L 499.046 409.505 C 499.579 409.507 499.91 410.085 499.642 410.545 C 499.519 410.758 499.292 410.889 499.046 410.89 Z" fill="#cacaca" style="stroke-width: 0.581;"/>
</svg>